<!-- github.svg -->
<svg xmlns="http://www.w3.org/2000/svg" width="32" height="32" viewBox="0 0 24 24" fill="#444444">
  <path d="M12 .5C5.73.5.5 5.73.5 12a11.5 11.5 0 008.01 10.94c.58.1.79-.25.79-.55v-2.05c-3.26.71-3.95-1.57-3.95-1.57-.53-1.35-1.3-1.7-1.3-1.7-1.06-.73.08-.72.08-.72 1.18.08 1.8 1.22 1.8 1.22 1.04 1.78 2.73 1.27 3.4.97.11-.75.4-1.27.73-1.56-2.6-.3-5.33-1.3-5.33-5.8 0-1.28.47-2.32 1.23-3.14-.12-.3-.53-1.52.12-3.17 0 0 .99-.32 3.24 1.2a11.3 11.3 0 015.9 0C17.72 5.1 18.7 5.42 18.7 5.42c.65 1.65.24 2.87.12 3.17.76.82 1.23 1.86 1.23 3.14 0 4.52-2.73 5.5-5.34 5.8.41.36.77 1.1.77 2.22v3.29c0 .31.21.66.8.55A11.5 11.5 0 0023.5 12c0-6.27-5.23-11.5-11.5-11.5z"/>
</svg>
